<?xml version="1.0" encoding="utf-8"?>
<!-- Svg Vector Icons : http://www.onlinewebfonts.com/icon -->
<!DOCTYPE svg PUBLIC "-//W3C//DTD SVG 1.1//EN" "http://www.w3.org/Graphics/SVG/1.1/DTD/svg11.dtd">
<svg version="1.1" xmlns="http://www.w3.org/2000/svg" xmlns:xlink="http://www.w3.org/1999/xlink" x="0px" y="0px" viewBox="0 0 256 256" enable-background="new 0 0 256 256" xml:space="preserve">
<metadata> Svg Vector Icons : http://www.onlinewebfonts.com/icon </metadata>
<g><g><path fill="#000000" d="M245,75.4L245,75.4l-33.2,73.8l0,0c-1.6,3.6-5.2,6.2-9.3,6.5l0,0l-95.6,6.4l5.5,15.8h104.1c12.2,0,22.1,9.9,22.1,22.1c0,12.2-9.9,22.2-22.1,22.2c-12.2,0-22.2-9.9-22.2-22.2H91.1c0,12.2-9.9,22.2-22.1,22.2c-12.2,0-22.1-9.9-22.1-22.2c0-12.2,9.9-22.1,22.1-22.1h20L46.4,56.1H21.1c-6.1,0-11.1-5-11.1-11.1C10,38.9,15,34,21.1,34h33.2c4.8,0,8.9,3.1,10.4,7.4l0,0l6.4,18.4h163.8c6.1,0,11.1,5,11.1,11.1C246,72.4,245.6,74,245,75.4z"/></g></g>
</svg>