<svg xmlns="http://www.w3.org/2000/svg" width="1683" height="503" viewBox="0 0 1683 503">
<g>
<path d="M 273.37 498.28 C264.41,483.75 258.02,475.33 249.75,467.18 C226.10,443.86 203.59,434.63 178.23,437.83 C158.57,440.31 141.18,446.84 112.69,462.41 C107.85,465.06 103.65,466.99 103.36,466.70 C103.07,466.41 103.32,461.33 103.92,455.41 C105.30,441.63 105.30,420.35 103.92,410.32 C100.33,384.40 85.38,362.29 64.27,351.71 C52.74,345.94 42.27,342.67 25.06,339.46 C17.67,338.08 11.37,336.70 11.06,336.39 C10.75,336.07 13.06,333.58 16.19,330.85 C22.12,325.68 33.11,313.10 39.21,304.50 C58.47,277.34 63.23,246.39 51.96,221.50 C45.27,206.73 31.54,191.34 12.23,176.99 C6.03,172.38 1.12,168.13 1.31,167.55 C1.50,166.97 5.22,166.16 9.58,165.74 C39.98,162.83 48.99,160.80 63.65,153.54 C80.52,145.19 90.22,132.80 94.98,113.50 C98.66,98.60 99.29,72.14 96.49,49.73 C95.62,42.77 95.78,42.73 106.72,47.12 C135.73,58.75 157.25,63.54 177.06,62.77 C191.47,62.21 200.95,59.62 213.07,52.96 C230.12,43.59 241.68,32.09 256.51,9.72 L 262.34 0.95 L 264.92 3.32 C277.45,14.81 290.21,24.28 306.00,33.78 C312.95,37.96 326.68,44.22 335.33,47.14 C351.78,52.69 368.92,54.34 385.31,51.95 C410.14,48.32 443.90,30.73 466.66,9.58 C471.14,5.41 475.13,2.00 475.51,2.00 C475.89,2.00 479.41,4.97 483.33,8.60 C496.87,21.13 521.75,35.43 539.00,40.58 C549.47,43.71 567.25,44.85 577.59,43.07 C599.94,39.21 626.80,26.19 653.73,6.16 L 660.96 0.78 L 667.73 5.78 C689.23,21.64 718.89,35.51 740.00,39.56 C749.46,41.38 764.55,41.38 773.00,39.57 C793.33,35.21 815.50,23.31 835.46,6.04 C838.02,3.82 840.66,2.01 841.31,2.01 C841.96,2.02 845.65,4.72 849.50,8.02 C864.78,21.09 887.62,33.80 903.50,38.07 C929.38,45.02 957.91,39.42 990.97,20.91 C998.65,16.61 1008.26,10.60 1012.31,7.55 C1016.36,4.50 1020.39,2.00 1021.26,2.00 C1022.13,2.00 1025.02,3.66 1027.67,5.69 C1035.27,11.49 1053.77,23.44 1062.00,27.85 C1091.11,43.49 1121.76,48.35 1144.35,40.93 C1162.03,35.13 1184.86,21.35 1200.83,6.84 C1203.76,4.18 1206.57,2.00 1207.06,2.00 C1207.56,2.00 1211.46,5.19 1215.73,9.10 C1245.95,36.71 1271.73,49.02 1299.29,48.99 C1325.31,48.97 1358.17,34.32 1390.17,8.48 C1394.59,4.92 1398.55,2.00 1398.98,2.00 C1399.89,2.00 1404.30,7.29 1412.77,18.53 C1428.77,39.77 1451.35,56.28 1473.00,62.55 C1481.54,65.03 1484.07,65.31 1498.00,65.31 C1520.73,65.33 1539.94,61.18 1564.50,50.94 C1581.29,43.95 1583.89,43.01 1584.39,43.82 C1584.66,44.25 1584.41,50.88 1583.85,58.55 C1582.31,79.68 1584.46,104.64 1588.96,118.00 C1594.91,135.62 1602.40,144.61 1617.47,152.22 C1633.79,160.46 1645.44,163.30 1672.92,165.75 C1677.56,166.16 1681.48,166.95 1681.64,167.50 C1681.80,168.05 1676.88,172.44 1670.71,177.25 C1644.22,197.92 1632.29,213.39 1626.24,234.91 C1623.70,243.93 1624.01,261.76 1626.86,271.00 C1633.34,291.97 1642.62,306.48 1662.77,327.15 C1673.63,338.29 1674.66,336.60 1654.92,339.99 C1630.30,344.22 1612.64,352.23 1600.37,364.75 C1580.88,384.62 1573.71,411.13 1577.49,449.34 C1578.41,458.60 1578.92,466.41 1578.64,466.70 C1578.35,466.98 1574.15,464.95 1569.31,462.18 C1545.24,448.43 1523.00,440.43 1501.97,437.96 C1486.66,436.15 1472.75,439.38 1456.41,448.51 C1448.79,452.78 1437.04,462.01 1431.50,468.10 C1422.38,478.13 1417.08,484.78 1414.47,489.50 C1412.94,492.25 1410.70,495.97 1409.49,497.77 L 1407.29 501.04 L 1399.39 494.25 C1380.08,477.62 1368.69,469.73 1351.96,461.39 C1315.81,443.37 1292.51,444.78 1256.22,467.19 C1252.77,469.32 1249.17,471.69 1248.22,472.45 C1239.20,479.69 1230.64,486.93 1226.49,490.81 C1223.73,493.39 1220.05,496.79 1218.31,498.37 L 1215.14 501.24 L 1211.82 498.92 C1209.99,497.64 1206.03,494.52 1203.00,491.98 C1194.25,484.64 1178.50,474.65 1165.50,468.20 C1136.52,453.83 1118.19,450.99 1097.00,457.58 C1088.50,460.22 1073.15,467.33 1067.95,471.03 C1066.43,472.12 1064.93,473.00 1064.61,473.00 C1063.45,473.00 1046.30,485.59 1037.08,493.21 C1031.90,497.50 1026.78,501.00 1025.70,501.00 C1024.62,501.00 1020.76,498.81 1017.12,496.12 C993.45,478.69 972.22,467.33 953.00,461.81 C942.34,458.74 940.43,458.50 927.00,458.51 C915.87,458.51 911.11,458.94 906.50,460.33 C898.30,462.82 884.68,468.69 877.81,472.70 C869.72,477.43 855.52,488.29 848.50,495.13 C845.20,498.35 841.95,500.98 841.29,500.99 C840.62,500.99 836.57,497.83 832.29,493.95 C802.02,466.53 775.51,455.20 748.50,458.15 C724.11,460.81 698.58,472.34 666.39,495.23 C661.92,498.40 657.42,500.99 656.39,500.98 C655.35,500.97 650.22,497.33 645.00,492.89 C614.12,466.66 583.12,452.54 560.56,454.42 C535.54,456.50 504.36,471.51 475.34,495.45 C471.64,498.50 468.09,501.00 467.45,501.00 C466.81,501.00 463.25,497.96 459.52,494.25 C449.53,484.29 431.56,469.71 423.00,464.64 C411.96,458.10 408.45,456.40 398.50,452.81 C390.10,449.78 388.63,449.56 376.50,449.55 C361.97,449.54 357.08,450.54 340.92,456.89 C322.33,464.19 303.93,475.94 285.98,492.00 C275.17,501.68 275.39,501.56 273.37,498.28 Z" fill="rgba(0,0,0,1)"/>
</g>
</svg>