<svg xmlns="http://www.w3.org/2000/svg" width="798" height="227" viewBox="0 0 798 227">
<g>
<path d="M 243.66 225.92 C170.69,225.14 112.27,223.61 90.00,221.91 C58.60,219.51 40.50,212.69 25.45,197.58 C3.85,175.88 -4.70,131.34 2.93,80.24 C6.90,53.67 10.19,45.52 21.38,34.48 C35.76,20.30 58.59,11.61 92.09,7.56 C152.91,0.21 518.89,-2.83 639.50,3.00 C698.23,5.84 725.99,9.53 744.63,16.98 C768.04,26.33 785.46,44.14 793.23,66.67 C795.79,74.10 796.31,77.54 797.20,92.86 C798.48,115.12 797.64,137.77 795.09,149.00 C785.91,189.57 762.96,213.35 725.50,221.10 C712.99,223.69 687.28,224.86 618.00,226.00 C551.28,227.09 348.41,227.05 243.66,225.92 Z" fill="rgba(0,0,0,1)"/>
</g>
</svg>